<svg width="23" height="22" viewBox="0 0 23 22" fill="none" xmlns="http://www.w3.org/2000/svg">
<path fill-rule="evenodd" clip-rule="evenodd" d="M0.00355674 1.74999C0.00261344 1.55108 0.0807255 1.35994 0.220709 1.21863C0.360693 1.07731 0.551081 0.997387 0.749992 0.996443L2.99997 0.985773C3.16726 0.985026 3.33 1.04023 3.46231 1.14262C3.59462 1.245 3.6889 1.38869 3.73015 1.55082L4.34918 3.97941L21.764 3.89682C21.8779 3.89631 21.9904 3.92176 22.0931 3.97124C22.1957 4.02072 22.2857 4.09292 22.3562 4.18237C22.4268 4.27183 22.476 4.37617 22.5002 4.4875C22.5244 4.59882 22.5229 4.71419 22.4959 4.82486L20.2886 13.8354C20.2489 13.9979 20.156 14.1425 20.0246 14.2461C19.8933 14.3498 19.7311 14.4065 19.5638 14.4074L6.06395 14.4714C5.89666 14.4721 5.73392 14.4169 5.60161 14.3145C5.4693 14.2122 5.37502 14.0685 5.33377 13.9064L2.42209 2.48853L0.757105 2.49643C0.558195 2.49737 0.367057 2.41926 0.225739 2.27927C0.0844215 2.13929 0.00450005 1.9489 0.00355674 1.74999ZM4.73129 5.47761L6.64183 12.9686L18.9717 12.9102L20.8111 5.40136L4.73129 5.47761ZM7.57816 17.4642C7.18034 17.4661 6.79957 17.626 6.5196 17.9086C6.23963 18.1912 6.08341 18.5735 6.08529 18.9713C6.08718 19.3692 6.24702 19.7499 6.52966 20.0299C6.81229 20.3099 7.19457 20.4661 7.59239 20.4642C7.99021 20.4623 8.37099 20.3025 8.65095 20.0198C8.93092 19.7372 9.08715 19.3549 9.08526 18.9571C9.08337 18.5593 8.92353 18.1785 8.64089 17.8986C8.35826 17.6186 7.97598 17.4624 7.57816 17.4642ZM4.58531 18.9785C4.58154 18.1828 4.89399 17.4183 5.45392 16.853C6.01386 16.2877 6.77541 15.968 7.57105 15.9643C8.36669 15.9605 9.13124 16.2729 9.69651 16.8329C10.2618 17.3928 10.5815 18.1544 10.5852 18.95C10.589 19.7456 10.2766 20.5102 9.71663 21.0755C9.1567 21.6407 8.39514 21.9604 7.5995 21.9642C6.80386 21.968 6.03931 21.6555 5.47404 21.0956C4.90877 20.5357 4.58908 19.7741 4.58531 18.9785ZM18.078 17.4145C17.6802 17.4163 17.2994 17.5762 17.0195 17.8588C16.7395 18.1415 16.5833 18.5237 16.5852 18.9215C16.5871 19.3194 16.7469 19.7001 17.0295 19.9801C17.3122 20.2601 17.6945 20.4163 18.0923 20.4144C18.4901 20.4125 18.8709 20.2527 19.1508 19.9701C19.4308 19.6874 19.587 19.3051 19.5851 18.9073C19.5833 18.5095 19.4234 18.1287 19.1408 17.8488C18.8581 17.5688 18.4759 17.4126 18.078 17.4145ZM15.0852 18.9287C15.0814 18.133 15.3939 17.3685 15.9538 16.8032C16.5137 16.2379 17.2753 15.9182 18.0709 15.9145C18.8666 15.9107 19.6311 16.2231 20.1964 16.7831C20.7617 17.343 21.0814 18.1046 21.0851 18.9002C21.0889 19.6958 20.7765 20.4604 20.2165 21.0257C19.6566 21.5909 18.895 21.9106 18.0994 21.9144C17.3037 21.9182 16.5392 21.6057 15.9739 21.0458C15.4087 20.4859 15.089 19.7243 15.0852 18.9287Z" fill="#1B1B1B"/>
</svg>
