<svg width="16" height="16" viewBox="0 0 16 16" fill="none" xmlns="http://www.w3.org/2000/svg">
<path d="M1.08948 2.00435L7.08515 8.00004L1.08948 14.9106C1.21577 15.0369 1.38151 15.1 1.54691 15.1C1.71231 15.1 1.87802 15.0369 2.00433 14.9106L2.00434 14.9106L7.99999 8.9149L13.9957 14.9106C14.122 15.0369 14.2877 15.1 14.4531 15.1C14.6185 15.1 14.7842 15.0369 14.9105 14.9106L14.9105 14.9106C15.1632 14.658 15.1632 14.2484 14.9105 13.9957L8.91485 8.00007L14.9105 2.00435C15.1632 1.75172 15.1632 1.34212 14.9105 1.08951C14.6579 0.836914 14.2483 0.836865 13.9957 1.08951C13.9957 1.08951 13.9957 1.08951 13.9957 1.08951L7.99999 7.08523L2.00431 1.08951C1.75168 0.836878 1.34208 0.836872 1.08947 1.08951C0.83688 1.34214 0.836832 1.75173 1.08948 2.00435C1.08948 2.00435 1.08948 2.00435 1.08948 2.00435Z" fill="#1B1B1B" stroke="#1B1B1B" stroke-width="0.2"/>
</svg>
