<svg width="24" height="24" viewBox="0 0 24 24" fill="none" xmlns="http://www.w3.org/2000/svg">
<path d="M0.75 4.83638H12.9615C13.2984 6.5358 14.5295 7.79968 15.9931 7.79968C17.4567 7.79968 18.6878 6.5358 19.0246 4.83638H23.25C23.6642 4.83638 24 4.41706 24 3.89987C24 3.38268 23.6642 2.96336 23.25 2.96336H19.0246C18.6878 1.26394 17.4567 0 15.993 0C14.5294 0 13.2983 1.26394 12.9615 2.96336H0.75C0.335812 2.96336 0 3.38268 0 3.89987C0 4.41706 0.335812 4.83638 0.75 4.83638ZM15.9931 1.87302C16.8881 1.87302 17.6163 2.78226 17.6163 3.89981C17.6163 5.01742 16.8881 5.92666 15.9931 5.92666C15.0981 5.92666 14.3699 5.01742 14.3699 3.89981C14.3699 2.78226 15.0981 1.87302 15.9931 1.87302ZM0.75 12.9365H4.97541C5.31225 14.6359 6.54333 15.8998 8.00695 15.8998C9.47058 15.8998 10.7017 14.6359 11.0385 12.9365H23.25C23.6642 12.9365 24 12.5172 24 12C24 11.4828 23.6642 11.0635 23.25 11.0635H11.0385C10.7016 9.36407 9.47053 8.10013 8.00691 8.10013C6.54328 8.10013 5.3122 9.36407 4.97536 11.0635H0.75C0.335812 11.0635 0 11.4828 0 12C0 12.5172 0.335766 12.9365 0.75 12.9365ZM8.00691 9.97315C8.90194 9.97315 9.63009 10.8824 9.63009 12C9.63009 13.1176 8.90194 14.0268 8.00691 14.0268C7.11187 14.0268 6.38372 13.1176 6.38372 12C6.38372 10.8824 7.11187 9.97315 8.00691 9.97315ZM23.25 19.1636H19.0246C18.6877 17.4642 17.4567 16.2003 15.993 16.2003C14.5294 16.2003 13.2983 17.4642 12.9615 19.1636H0.75C0.335812 19.1636 0 19.5829 0 20.1001C0 20.6173 0.335812 21.0366 0.75 21.0366H12.9615C13.2984 22.7361 14.5295 24 15.9931 24C17.4567 24 18.6878 22.7361 19.0246 21.0366H23.25C23.6642 21.0366 24 20.6173 24 20.1001C24 19.5829 23.6642 19.1636 23.25 19.1636ZM15.9931 22.127C15.0981 22.127 14.3699 21.2177 14.3699 20.1001C14.3699 18.9825 15.0981 18.0733 15.9931 18.0733C16.8881 18.0733 17.6163 18.9825 17.6163 20.1001C17.6163 21.2177 16.8881 22.127 15.9931 22.127Z" fill="black"/>
</svg>
