<svg width="37" height="23" viewBox="0 0 37 23" fill="none" xmlns="http://www.w3.org/2000/svg">
<path fill-rule="evenodd" clip-rule="evenodd" d="M26.2368 20.9781C29.3617 21.0541 32.5551 20.9021 35.543 21.9799C35.7211 22.0435 35.917 21.9509 35.9814 21.7713C36.0444 21.5917 35.9526 21.3941 35.7745 21.3291C32.7167 20.2265 29.4507 20.3646 26.2532 20.2873C26.0641 20.2817 25.9066 20.4337 25.9025 20.6244C25.897 20.8151 26.0477 20.9726 26.2368 20.9781Z" fill="white" stroke="white" stroke-width="0.2"/>
<path fill-rule="evenodd" clip-rule="evenodd" d="M25.9562 16.4024C26.9302 15.4984 27.9933 14.8212 29.2784 14.4856C29.4619 14.4377 29.5715 14.2491 29.5249 14.0645C29.477 13.8799 29.2893 13.769 29.1071 13.8168C27.7097 14.1816 26.5521 14.9114 25.4931 15.8937C25.3534 16.0228 25.3438 16.2415 25.4726 16.3819C25.6 16.5222 25.8178 16.5314 25.9562 16.4024Z" fill="white"/>
<path fill-rule="evenodd" clip-rule="evenodd" d="M23.2456 6.533C23.6922 4.98886 24.5718 3.78091 25.9198 2.90859C26.0787 2.80564 26.1253 2.59175 26.0226 2.43132C25.9212 2.2709 25.7088 2.22419 25.5499 2.32713C24.058 3.293 23.0826 4.62973 22.588 6.33941C22.5346 6.52236 22.6401 6.71443 22.8209 6.76777C23.0031 6.82125 23.1936 6.71595 23.2456 6.533Z" fill="white" stroke="white" stroke-width="0.2"/>
<path fill-rule="evenodd" clip-rule="evenodd" d="M7.85424 4.4374C7.58847 4.75286 7.35009 5.09278 7.14733 5.45467C7.05692 5.61579 6.898 5.95819 6.87334 6.25182C6.84594 6.56465 6.95142 6.82858 7.22267 6.96759C7.58298 7.15192 7.87068 7.13271 8.09262 7.0212C8.30633 6.91411 8.47346 6.70367 8.57895 6.42151C8.78033 5.8822 8.75019 5.05797 8.6447 4.58761C8.92829 4.29246 9.23927 4.0248 9.57218 3.78686C12.0518 2.01472 15.6891 2.66817 18.488 5.31788C19.4675 6.2456 19.9388 8.19392 20.184 10.296C20.5662 13.5691 20.3484 17.2247 20.3182 18.2957C20.3114 18.5602 20.336 18.7172 20.3497 18.7485C20.4141 18.9027 20.5278 18.9428 20.6073 18.958C20.7224 18.9787 20.8142 18.9566 20.8881 18.9179C20.9881 18.8649 21.0704 18.7715 21.1087 18.6273C21.1293 18.5478 21.1347 18.4369 21.132 18.3188C21.1293 18.2369 21.1128 18.1473 21.1293 18.0886C21.2361 17.7125 21.3649 17.3452 21.4909 16.9753C21.9115 15.7318 22.4554 14.5666 23.0596 13.4027C24.9789 9.70448 26.8352 5.79694 29.982 2.97934C30.1231 2.85291 30.1368 2.63431 30.0108 2.49171C29.8861 2.34911 29.6697 2.33612 29.5272 2.46269C26.3173 5.33597 24.4103 9.31081 22.4527 13.0822C21.9389 14.0723 21.4676 15.0637 21.0758 16.1008C21.1156 14.2663 21.1005 11.727 20.7676 9.48022C20.4717 7.48202 19.9086 5.7161 18.9565 4.81421C15.8905 1.9115 11.8915 1.28183 9.17625 3.22323C8.88582 3.43105 8.6091 3.6596 8.35154 3.90749C6.93088 1.3201 3.88954 0.28307 1.20165 1.5206C1.02904 1.59977 0.953691 1.80483 1.03178 1.97824C1.11124 2.15166 1.31399 2.22821 1.4866 2.14903C3.90871 1.03394 6.65552 2.02909 7.85424 4.4374ZM8.05288 5.30364C7.94192 5.46172 7.83917 5.6256 7.74327 5.79501C7.69258 5.88593 7.6049 6.06072 7.56791 6.23179C7.55969 6.27186 7.55833 6.33459 7.55833 6.36361C7.65285 6.41059 7.72682 6.43325 7.7871 6.40272C7.86245 6.36513 7.90082 6.27669 7.93781 6.1779C8.03097 5.93001 8.0611 5.60141 8.05288 5.30364Z" fill="white" stroke="white" stroke-width="0.2"/>
</svg>
